<?xml version="1.0" encoding="utf-8"?>
<!-- Generator: Adobe Illustrator 21.0.0, SVG Export Plug-In . SVG Version: 6.00 Build 0)  -->
<svg version="1.1" id="Layer_1" xmlns="http://www.w3.org/2000/svg" xmlns:xlink="http://www.w3.org/1999/xlink" x="0px" y="0px"
	 viewBox="0 0 2650.6 426.7" style="enable-background:new 0 0 2650.6 426.7;" xml:space="preserve">
<style type="text/css">
	.st0{opacity:8.000000e-02;}
	.st1{fill:#DBDBDB;}
	.st2{fill:#E5E5E5;}
	.st3{fill:#231F20;}
	.st4{fill:#FF9797;}
	.st5{fill:#66FF6D;}
	.st6{fill:#FCF460;}
</style>
<g id="Layer_1_1_" class="st0">
	<g>
		<g>
			<g transform="translate(0.000000,640.000000) scale(0.100000,-0.100000)">
				<path d="M19036.5,6392.6c-40.2-16-51.5-37-57.9-106c-2.4-36-11.3-73-18.5-84c-7.3-10-206-114-447.4-233
					c-531.9-263-842.4-424-990.5-512c-139.2-83-198.7-102-335.5-111c-63.6-3-140-15-190.7-29c-115.8-33-209.2-44-404.7-52l-167.4-6
					l-33-70c-32.2-70-33-70-18.5-99c19.3-41,17.7-113-4.8-194c-21-74-24.2-186-12.1-361l5.6-81l-29-17c-53.9-33-84.5-110-107.8-277
					c-20.1-137-20.9-191-4.8-273c8.8-43,10.4-87,7.2-155c-4.8-85-1.6-125,16.9-236c2.4-12,19.3-34,37.8-49
					c57.1-47,109.4-115,119.9-153c12.1-48,35.4-79,80.5-107c100.6-64,154.5-75,683.1-135c192.3-22,363.7-43,380.6-46l29.8-6v109
					c0,464,169.8,827,478.8,1025c279.2,178,604.2,165,860.9-35c305.8-238,444.2-576,427.3-1047c-2.5-80-7.3-166-9.7-193l-5.6-47
					h2403.4c1404.1,0,2402.6,4,2402.6,9s-6.5,44-13.7,87c-11.3,62-14.5,123-13.7,279c0,188,1.6,205,22.5,290
					c42.6,177,97.3,291,197.1,416c157.7,196,355.6,323,559.2,358c205.2,36,416-30,604.3-187c229.3-191,361.3-481,379-830
					c4-87,1.6-137-17.7-306l-5.6-48l103.8,7c156.9,10,311.4,34,371.7,57c66,25,103,55,131.2,109c37,67,39.5,138,11.3,303
					c-12.9,73-12.9,86-0.8,180c6.4,56,16.1,151,20.9,211c4.8,61,12.1,140,16.1,177c17.7,150,3.3,300-41,427
					c-50.7,148-240.6,264-655,400c-317,104-596.2,174-905.2,225c-492.5,83-914.1,126-1230.3,126h-188.3l-161.7,118
					c-519,380-1059.7,741-1363,911c-251.9,141-531.9,197-1110.4,223c-371.7,16-978.4-5-1435.4-51l-90.9-9l-35.4,29
					C19210.4,6382.6,19093.7,6415.6,19036.5,6392.6z M20575.8,6139.6c17.7-27,61.2-342,117.5-847c20.1-187,24.9-248,17.7-257
					c-8.1-10-107.9-9-464.3,2c-1102.3,35-1340.5,48-1428.2,76c-126.4,40-201.2,113-254.3,248c-21.8,54-26.6,81-29.8,146
					c-4,124,8,160,70.8,213c133.6,112,371,232,566.5,286c286.5,80,790.2,138,1248.8,144C20534,6152.6,20568.6,6149.6,20575.8,6139.6
					z M21188,6102.6c305-39,591.4-97,728.2-149c123.1-47,266.4-127,410.4-229c169.8-120,416-336,412.8-362c-1.6-9-16.9-17-38.6-22
					c-39.4-9-66.8-30-91.7-72c-16.9-27-19.3-80-11.3-201l2.4-30H21868h-731.4l-139.2,530c-75.6,292-138.4,539-138.4,549
					c-0.8,18,4,19,86.1,12C20992.6,6124.6,21102,6112.6,21188,6102.6z"/>
				<path d="M18314.8,4177.6c-315.4-74-568-370-652.5-763c-23.4-109-28.2-308-11.3-430c51.5-367,265.6-676,552-797
					c415.2-176,874.7,88,1037.2,598c94.1,295,69.2,645-65.2,917c-109.4,222-296.9,393-503.7,462
					C18589.2,4191.6,18401.7,4198.6,18314.8,4177.6z M18628.7,3882.6c179.4-62,328.3-229,398.3-445c125.5-390-43.5-844-364.5-980
					c-332.3-140-684,97-778.1,526c-21.7,97-20.1,271,3.2,373c57.1,249,216.4,453,407.9,521
					C18404.1,3916.6,18523.2,3918.6,18628.7,3882.6z"/>
				<path d="M24835.4,4178.6c-339.5-81-597-399-666.2-825c-18.5-112-12.8-332,10.5-443c39.5-183,114.3-345,220.5-476
					c255-317,643.7-392,963.9-186c382.2,245,548.7,800,389.4,1301c-40.2,129-90.9,221-180.2,333c-118.3,149-230.9,231-385.4,282
					C25108.3,4190.6,24919.2,4198.6,24835.4,4178.6z M25133.3,3886.6c193.9-62,350.8-241,416.8-475c45.8-160,46.7-323,2.4-489
					c-111.1-414-492.5-619-814.3-439c-122.3,68-229.4,196-288.1,344c-49.9,127-62.8,197-62.8,335c0,139,12.9,208,65.2,340
					c66.8,169,202.7,313,352.4,374C24899.9,3914.6,25034.2,3918.6,25133.3,3886.6z"/>
			</g>
		</g>
		<g>
			<g>
				<g transform="translate(0.000000,640.000000) scale(0.100000,-0.100000)">
					<path class="st1" d="M19036.5,6392.6c-40.2-16-51.5-37-57.9-106c-2.4-36-11.3-73-18.5-84c-7.3-10-206-114-447.4-233
						c-531.9-263-842.4-424-990.5-512c-139.2-83-198.7-102-335.5-111c-63.6-3-140-15-190.7-29c-115.8-33-209.2-44-404.7-52l-167.4-6
						l-33-70c-32.2-70-33-70-18.5-99c19.3-41,17.7-113-4.8-194c-21-74-24.2-186-12.1-361l5.6-81l-29-17c-53.9-33-84.5-110-107.8-277
						c-20.1-137-20.9-191-4.8-273c8.8-43,10.4-87,7.2-155c-4.8-85-1.6-125,16.9-236c2.4-12,19.3-34,37.8-49
						c57.1-47,109.4-115,119.9-153c12.1-48,35.4-79,80.5-107c100.6-64,154.5-75,683.1-135c192.3-22,363.7-43,380.6-46l29.8-6v109
						c0,464,169.8,827,478.8,1025c279.2,178,604.2,165,860.9-35c305.8-238,444.2-576,427.3-1047c-2.5-80-7.3-166-9.7-193l-5.6-47
						h2403.4c1404.1,0,2402.6,4,2402.6,9s-6.5,44-13.7,87c-11.3,62-14.5,123-13.7,279c0,188,1.6,205,22.5,290
						c42.6,177,97.3,291,197.1,416c157.7,196,355.6,323,559.2,358c205.2,36,416-30,604.3-187c229.3-191,361.3-481,379-830
						c4-87,1.6-137-17.7-306l-5.6-48l103.8,7c156.9,10,311.4,34,371.7,57c66,25,103,55,131.2,109c37,67,39.5,138,11.3,303
						c-12.9,73-12.9,86-0.8,180c6.4,56,16.1,151,20.9,211c4.8,61,12.1,140,16.1,177c17.7,150,3.3,300-41,427
						c-50.7,148-240.6,264-655,400c-317,104-596.2,174-905.2,225c-492.5,83-914.1,126-1230.3,126h-188.3l-161.7,118
						c-519,380-1059.7,741-1363,911c-251.9,141-531.9,197-1110.4,223c-371.7,16-978.4-5-1435.4-51l-90.9-9l-35.4,29
						C19210.4,6382.6,19093.7,6415.6,19036.5,6392.6z M20575.8,6139.6c17.7-27,61.2-342,117.5-847c20.1-187,24.9-248,17.7-257
						c-8.1-10-107.9-9-464.3,2c-1102.3,35-1340.5,48-1428.2,76c-126.4,40-201.2,113-254.3,248c-21.8,54-26.6,81-29.8,146
						c-4,124,8,160,70.8,213c133.6,112,371,232,566.5,286c286.5,80,790.2,138,1248.8,144
						C20534,6152.6,20568.6,6149.6,20575.8,6139.6z M21188,6102.6c305-39,591.4-97,728.2-149c123.1-47,266.4-127,410.4-229
						c169.8-120,416-336,412.8-362c-1.6-9-16.9-17-38.6-22c-39.4-9-66.8-30-91.7-72c-16.9-27-19.3-80-11.3-201l2.4-30H21868h-731.4
						l-139.2,530c-75.6,292-138.4,539-138.4,549c-0.8,18,4,19,86.1,12C20992.6,6124.6,21102,6112.6,21188,6102.6z"/>
					<path class="st1" d="M18314.8,4177.6c-315.4-74-568-370-652.5-763c-23.4-109-28.2-308-11.3-430c51.5-367,265.6-676,552-797
						c415.2-176,874.7,88,1037.2,598c94.1,295,69.2,645-65.2,917c-109.4,222-296.9,393-503.7,462
						C18589.2,4191.6,18401.7,4198.6,18314.8,4177.6z M18628.7,3882.6c179.4-62,328.3-229,398.3-445c125.5-390-43.5-844-364.5-980
						c-332.3-140-684,97-778.1,526c-21.7,97-20.1,271,3.2,373c57.1,249,216.4,453,407.9,521
						C18404.1,3916.6,18523.2,3918.6,18628.7,3882.6z"/>
					<path class="st1" d="M24835.4,4178.6c-339.5-81-597-399-666.2-825c-18.5-112-12.8-332,10.5-443c39.5-183,114.3-345,220.5-476
						c255-317,643.7-392,963.9-186c382.2,245,548.7,800,389.4,1301c-40.2,129-90.9,221-180.2,333c-118.3,149-230.9,231-385.4,282
						C25108.3,4190.6,24919.2,4198.6,24835.4,4178.6z M25133.3,3886.6c193.9-62,350.8-241,416.8-475c45.8-160,46.7-323,2.4-489
						c-111.1-414-492.5-619-814.3-439c-122.3,68-229.4,196-288.1,344c-49.9,127-62.8,197-62.8,335c0,139,12.9,208,65.2,340
						c66.8,169,202.7,313,352.4,374C24899.9,3914.6,25034.2,3918.6,25133.3,3886.6z"/>
				</g>
			</g>
			<g>
				<g transform="translate(0.000000,640.000000) scale(0.100000,-0.100000)">
					<path class="st2" d="M19036.5,6392.6c-40.2-16-51.5-37-57.9-106c-2.4-36-11.3-73-18.5-84c-7.3-10-206-114-447.4-233
						c-531.9-263-842.4-424-990.5-512c-139.2-83-198.7-102-335.5-111c-63.6-3-140-15-190.7-29c-115.8-33-209.2-44-404.7-52l-167.4-6
						l-33-70c-32.2-70-33-70-18.5-99c19.3-41,17.7-113-4.8-194c-21-74-24.2-186-12.1-361l5.6-81l-29-17c-53.9-33-84.5-110-107.8-277
						c-20.1-137-20.9-191-4.8-273c8.8-43,10.4-87,7.2-155c-4.8-85-1.6-125,16.9-236c2.4-12,19.3-34,37.8-49
						c57.1-47,109.4-115,119.9-153c12.1-48,35.4-79,80.5-107c100.6-64,154.5-75,683.1-135c192.3-22,363.7-43,380.6-46l29.8-6v109
						c0,464,169.8,827,478.8,1025c279.2,178,604.2,165,860.9-35c305.8-238,444.2-576,427.3-1047c-2.5-80-7.3-166-9.7-193l-5.6-47
						h2403.4c1404.1,0,2402.6,4,2402.6,9s-6.5,44-13.7,87c-11.3,62-14.5,123-13.7,279c0,188,1.6,205,22.5,290
						c42.6,177,97.3,291,197.1,416c157.7,196,355.6,323,559.2,358c205.2,36,416-30,604.3-187c229.3-191,361.3-481,379-830
						c4-87,1.6-137-17.7-306l-5.6-48l103.8,7c156.9,10,311.4,34,371.7,57c66,25,103,55,131.2,109c37,67,39.5,138,11.3,303
						c-12.9,73-12.9,86-0.8,180c6.4,56,16.1,151,20.9,211c4.8,61,12.1,140,16.1,177c17.7,150,3.3,300-41,427
						c-50.7,148-240.6,264-655,400c-317,104-596.2,174-905.2,225c-492.5,83-914.1,126-1230.3,126h-188.3l-161.7,118
						c-519,380-1059.7,741-1363,911c-251.9,141-531.9,197-1110.4,223c-371.7,16-978.4-5-1435.4-51l-90.9-9l-35.4,29
						C19210.4,6382.6,19093.7,6415.6,19036.5,6392.6z M20575.8,6139.6c17.7-27,61.2-342,117.5-847c20.1-187,24.9-248,17.7-257
						c-8.1-10-107.9-9-464.3,2c-1102.3,35-1340.5,48-1428.2,76c-126.4,40-201.2,113-254.3,248c-21.8,54-26.6,81-29.8,146
						c-4,124,8,160,70.8,213c133.6,112,371,232,566.5,286c286.5,80,790.2,138,1248.8,144
						C20534,6152.6,20568.6,6149.6,20575.8,6139.6z M21188,6102.6c305-39,591.4-97,728.2-149c123.1-47,266.4-127,410.4-229
						c169.8-120,416-336,412.8-362c-1.6-9-16.9-17-38.6-22c-39.4-9-66.8-30-91.7-72c-16.9-27-19.3-80-11.3-201l2.4-30H21868h-731.4
						l-139.2,530c-75.6,292-138.4,539-138.4,549c-0.8,18,4,19,86.1,12C20992.6,6124.6,21102,6112.6,21188,6102.6z"/>
					<path class="st2" d="M18314.8,4177.6c-315.4-74-568-370-652.5-763c-23.4-109-28.2-308-11.3-430c51.5-367,265.6-676,552-797
						c415.2-176,874.7,88,1037.2,598c94.1,295,69.2,645-65.2,917c-109.4,222-296.9,393-503.7,462
						C18589.2,4191.6,18401.7,4198.6,18314.8,4177.6z M18628.7,3882.6c179.4-62,328.3-229,398.3-445c125.5-390-43.5-844-364.5-980
						c-332.3-140-684,97-778.1,526c-21.7,97-20.1,271,3.2,373c57.1,249,216.4,453,407.9,521
						C18404.1,3916.6,18523.2,3918.6,18628.7,3882.6z"/>
					<path class="st2" d="M24835.4,4178.6c-339.5-81-597-399-666.2-825c-18.5-112-12.8-332,10.5-443c39.5-183,114.3-345,220.5-476
						c255-317,643.7-392,963.9-186c382.2,245,548.7,800,389.4,1301c-40.2,129-90.9,221-180.2,333c-118.3,149-230.9,231-385.4,282
						C25108.3,4190.6,24919.2,4198.6,24835.4,4178.6z M25133.3,3886.6c193.9-62,350.8-241,416.8-475c45.8-160,46.7-323,2.4-489
						c-111.1-414-492.5-619-814.3-439c-122.3,68-229.4,196-288.1,344c-49.9,127-62.8,197-62.8,335c0,139,12.9,208,65.2,340
						c66.8,169,202.7,313,352.4,374C24899.9,3914.6,25034.2,3918.6,25133.3,3886.6z"/>
				</g>
			</g>
		</g>
	</g>
	<g>
		<g>
			<g transform="translate(0.000000,640.000000) scale(0.100000,-0.100000)">
				<path class="st3" d="M19036.5,6392.6c-40.2-16-51.5-37-57.9-106c-2.4-36-11.3-73-18.5-84c-7.3-10-206-114-447.4-233
					c-531.9-263-842.4-424-990.5-512c-139.2-83-198.7-102-335.5-111c-63.6-3-140-15-190.7-29c-115.8-33-209.2-44-404.7-52l-167.4-6
					l-33-70c-32.2-70-33-70-18.5-99c19.3-41,17.7-113-4.8-194c-21-74-24.2-186-12.1-361l5.6-81l-29-17c-53.9-33-84.5-110-107.8-277
					c-20.1-137-20.9-191-4.8-273c8.8-43,10.4-87,7.2-155c-4.8-85-1.6-125,16.9-236c2.4-12,19.3-34,37.8-49
					c57.1-47,109.4-115,119.9-153c12.1-48,35.4-79,80.5-107c100.6-64,154.5-75,683.1-135c192.3-22,363.7-43,380.6-46l29.8-6v109
					c0,464,169.8,827,478.8,1025c279.2,178,604.2,165,860.9-35c305.8-238,444.2-576,427.3-1047c-2.5-80-7.3-166-9.7-193l-5.6-47
					h2403.4c1404.1,0,2402.6,4,2402.6,9s-6.5,44-13.7,87c-11.3,62-14.5,123-13.7,279c0,188,1.6,205,22.5,290
					c42.6,177,97.3,291,197.1,416c157.7,196,355.6,323,559.2,358c205.2,36,416-30,604.3-187c229.3-191,361.3-481,379-830
					c4-87,1.6-137-17.7-306l-5.6-48l103.8,7c156.9,10,311.4,34,371.7,57c66,25,103,55,131.2,109c37,67,39.5,138,11.3,303
					c-12.9,73-12.9,86-0.8,180c6.4,56,16.1,151,20.9,211c4.8,61,12.1,140,16.1,177c17.7,150,3.3,300-41,427
					c-50.7,148-240.6,264-655,400c-317,104-596.2,174-905.2,225c-492.5,83-914.1,126-1230.3,126h-188.3l-161.7,118
					c-519,380-1059.7,741-1363,911c-251.9,141-531.9,197-1110.4,223c-371.7,16-978.4-5-1435.4-51l-90.9-9l-35.4,29
					C19210.4,6382.6,19093.7,6415.6,19036.5,6392.6z M20575.8,6139.6c17.7-27,61.2-342,117.5-847c20.1-187,24.9-248,17.7-257
					c-8.1-10-107.9-9-464.3,2c-1102.3,35-1340.5,48-1428.2,76c-126.4,40-201.2,113-254.3,248c-21.8,54-26.6,81-29.8,146
					c-4,124,8,160,70.8,213c133.6,112,371,232,566.5,286c286.5,80,790.2,138,1248.8,144C20534,6152.6,20568.6,6149.6,20575.8,6139.6
					z M21188,6102.6c305-39,591.4-97,728.2-149c123.1-47,266.4-127,410.4-229c169.8-120,416-336,412.8-362c-1.6-9-16.9-17-38.6-22
					c-39.4-9-66.8-30-91.7-72c-16.9-27-19.3-80-11.3-201l2.4-30H21868h-731.4l-139.2,530c-75.6,292-138.4,539-138.4,549
					c-0.8,18,4,19,86.1,12C20992.6,6124.6,21102,6112.6,21188,6102.6z"/>
				<path class="st3" d="M18314.8,4177.6c-315.4-74-568-370-652.5-763c-23.4-109-28.2-308-11.3-430c51.5-367,265.6-676,552-797
					c415.2-176,874.7,88,1037.2,598c94.1,295,69.2,645-65.2,917c-109.4,222-296.9,393-503.7,462
					C18589.2,4191.6,18401.7,4198.6,18314.8,4177.6z M18628.7,3882.6c179.4-62,328.3-229,398.3-445c125.5-390-43.5-844-364.5-980
					c-332.3-140-684,97-778.1,526c-21.7,97-20.1,271,3.2,373c57.1,249,216.4,453,407.9,521
					C18404.1,3916.6,18523.2,3918.6,18628.7,3882.6z"/>
				<path class="st3" d="M24835.4,4178.6c-339.5-81-597-399-666.2-825c-18.5-112-12.8-332,10.5-443c39.5-183,114.3-345,220.5-476
					c255-317,643.7-392,963.9-186c382.2,245,548.7,800,389.4,1301c-40.2,129-90.9,221-180.2,333c-118.3,149-230.9,231-385.4,282
					C25108.3,4190.6,24919.2,4198.6,24835.4,4178.6z M25133.3,3886.6c193.9-62,350.8-241,416.8-475c45.8-160,46.7-323,2.4-489
					c-111.1-414-492.5-619-814.3-439c-122.3,68-229.4,196-288.1,344c-49.9,127-62.8,197-62.8,335c0,139,12.9,208,65.2,340
					c66.8,169,202.7,313,352.4,374C24899.9,3914.6,25034.2,3918.6,25133.3,3886.6z"/>
			</g>
		</g>
		<g>
			<g>
				<g transform="translate(0.000000,640.000000) scale(0.100000,-0.100000)">
					<path class="st3" d="M19036.5,6392.6c-40.2-16-51.5-37-57.9-106c-2.4-36-11.3-73-18.5-84c-7.3-10-206-114-447.4-233
						c-531.9-263-842.4-424-990.5-512c-139.2-83-198.7-102-335.5-111c-63.6-3-140-15-190.7-29c-115.8-33-209.2-44-404.7-52l-167.4-6
						l-33-70c-32.2-70-33-70-18.5-99c19.3-41,17.7-113-4.8-194c-21-74-24.2-186-12.1-361l5.6-81l-29-17c-53.9-33-84.5-110-107.8-277
						c-20.1-137-20.9-191-4.8-273c8.8-43,10.4-87,7.2-155c-4.8-85-1.6-125,16.9-236c2.4-12,19.3-34,37.8-49
						c57.1-47,109.4-115,119.9-153c12.1-48,35.4-79,80.5-107c100.6-64,154.5-75,683.1-135c192.3-22,363.7-43,380.6-46l29.8-6v109
						c0,464,169.8,827,478.8,1025c279.2,178,604.2,165,860.9-35c305.8-238,444.2-576,427.3-1047c-2.5-80-7.3-166-9.7-193l-5.6-47
						h2403.4c1404.1,0,2402.6,4,2402.6,9s-6.5,44-13.7,87c-11.3,62-14.5,123-13.7,279c0,188,1.6,205,22.5,290
						c42.6,177,97.3,291,197.1,416c157.7,196,355.6,323,559.2,358c205.2,36,416-30,604.3-187c229.3-191,361.3-481,379-830
						c4-87,1.6-137-17.7-306l-5.6-48l103.8,7c156.9,10,311.4,34,371.7,57c66,25,103,55,131.2,109c37,67,39.5,138,11.3,303
						c-12.9,73-12.9,86-0.8,180c6.4,56,16.1,151,20.9,211c4.8,61,12.1,140,16.1,177c17.7,150,3.3,300-41,427
						c-50.7,148-240.6,264-655,400c-317,104-596.2,174-905.2,225c-492.5,83-914.1,126-1230.3,126h-188.3l-161.7,118
						c-519,380-1059.7,741-1363,911c-251.9,141-531.9,197-1110.4,223c-371.7,16-978.4-5-1435.4-51l-90.9-9l-35.4,29
						C19210.4,6382.6,19093.7,6415.6,19036.5,6392.6z M20575.8,6139.6c17.7-27,61.2-342,117.5-847c20.1-187,24.9-248,17.7-257
						c-8.1-10-107.9-9-464.3,2c-1102.3,35-1340.5,48-1428.2,76c-126.4,40-201.2,113-254.3,248c-21.8,54-26.6,81-29.8,146
						c-4,124,8,160,70.8,213c133.6,112,371,232,566.5,286c286.5,80,790.2,138,1248.8,144
						C20534,6152.6,20568.6,6149.6,20575.8,6139.6z M21188,6102.6c305-39,591.4-97,728.2-149c123.1-47,266.4-127,410.4-229
						c169.8-120,416-336,412.8-362c-1.6-9-16.9-17-38.6-22c-39.4-9-66.8-30-91.7-72c-16.9-27-19.3-80-11.3-201l2.4-30H21868h-731.4
						l-139.2,530c-75.6,292-138.4,539-138.4,549c-0.8,18,4,19,86.1,12C20992.6,6124.6,21102,6112.6,21188,6102.6z"/>
					<path class="st3" d="M18314.8,4177.6c-315.4-74-568-370-652.5-763c-23.4-109-28.2-308-11.3-430c51.5-367,265.6-676,552-797
						c415.2-176,874.7,88,1037.2,598c94.1,295,69.2,645-65.2,917c-109.4,222-296.9,393-503.7,462
						C18589.2,4191.6,18401.7,4198.6,18314.8,4177.6z M18628.7,3882.6c179.4-62,328.3-229,398.3-445c125.5-390-43.5-844-364.5-980
						c-332.3-140-684,97-778.1,526c-21.7,97-20.1,271,3.2,373c57.1,249,216.4,453,407.9,521
						C18404.1,3916.6,18523.2,3918.6,18628.7,3882.6z"/>
					<path class="st3" d="M24835.4,4178.6c-339.5-81-597-399-666.2-825c-18.5-112-12.8-332,10.5-443c39.5-183,114.3-345,220.5-476
						c255-317,643.7-392,963.9-186c382.2,245,548.7,800,389.4,1301c-40.2,129-90.9,221-180.2,333c-118.3,149-230.9,231-385.4,282
						C25108.3,4190.6,24919.2,4198.6,24835.4,4178.6z M25133.3,3886.6c193.9-62,350.8-241,416.8-475c45.8-160,46.7-323,2.4-489
						c-111.1-414-492.5-619-814.3-439c-122.3,68-229.4,196-288.1,344c-49.9,127-62.8,197-62.8,335c0,139,12.9,208,65.2,340
						c66.8,169,202.7,313,352.4,374C24899.9,3914.6,25034.2,3918.6,25133.3,3886.6z"/>
				</g>
			</g>
			<g>
				<g transform="translate(0.000000,640.000000) scale(0.100000,-0.100000)">
					<path class="st3" d="M19036.5,6392.6c-40.2-16-51.5-37-57.9-106c-2.4-36-11.3-73-18.5-84c-7.3-10-206-114-447.4-233
						c-531.9-263-842.4-424-990.5-512c-139.2-83-198.7-102-335.5-111c-63.6-3-140-15-190.7-29c-115.8-33-209.2-44-404.7-52l-167.4-6
						l-33-70c-32.2-70-33-70-18.5-99c19.3-41,17.7-113-4.8-194c-21-74-24.2-186-12.1-361l5.6-81l-29-17c-53.9-33-84.5-110-107.8-277
						c-20.1-137-20.9-191-4.8-273c8.8-43,10.4-87,7.2-155c-4.8-85-1.6-125,16.9-236c2.4-12,19.3-34,37.8-49
						c57.1-47,109.4-115,119.9-153c12.1-48,35.4-79,80.5-107c100.6-64,154.5-75,683.1-135c192.3-22,363.7-43,380.6-46l29.8-6v109
						c0,464,169.8,827,478.8,1025c279.2,178,604.2,165,860.9-35c305.8-238,444.2-576,427.3-1047c-2.5-80-7.3-166-9.7-193l-5.6-47
						h2403.4c1404.1,0,2402.6,4,2402.6,9s-6.5,44-13.7,87c-11.3,62-14.5,123-13.7,279c0,188,1.6,205,22.5,290
						c42.6,177,97.3,291,197.1,416c157.7,196,355.6,323,559.2,358c205.2,36,416-30,604.3-187c229.3-191,361.3-481,379-830
						c4-87,1.6-137-17.7-306l-5.6-48l103.8,7c156.9,10,311.4,34,371.7,57c66,25,103,55,131.2,109c37,67,39.5,138,11.3,303
						c-12.9,73-12.9,86-0.8,180c6.4,56,16.1,151,20.9,211c4.8,61,12.1,140,16.1,177c17.7,150,3.3,300-41,427
						c-50.7,148-240.6,264-655,400c-317,104-596.2,174-905.2,225c-492.5,83-914.1,126-1230.3,126h-188.3l-161.7,118
						c-519,380-1059.7,741-1363,911c-251.9,141-531.9,197-1110.4,223c-371.7,16-978.4-5-1435.4-51l-90.9-9l-35.4,29
						C19210.4,6382.6,19093.7,6415.6,19036.5,6392.6z M20575.8,6139.6c17.7-27,61.2-342,117.5-847c20.1-187,24.9-248,17.7-257
						c-8.1-10-107.9-9-464.3,2c-1102.3,35-1340.5,48-1428.2,76c-126.4,40-201.2,113-254.3,248c-21.8,54-26.6,81-29.8,146
						c-4,124,8,160,70.8,213c133.6,112,371,232,566.5,286c286.5,80,790.2,138,1248.8,144
						C20534,6152.6,20568.6,6149.6,20575.8,6139.6z M21188,6102.6c305-39,591.4-97,728.2-149c123.1-47,266.4-127,410.4-229
						c169.8-120,416-336,412.8-362c-1.6-9-16.9-17-38.6-22c-39.4-9-66.8-30-91.7-72c-16.9-27-19.3-80-11.3-201l2.4-30H21868h-731.4
						l-139.2,530c-75.6,292-138.4,539-138.4,549c-0.8,18,4,19,86.1,12C20992.6,6124.6,21102,6112.6,21188,6102.6z"/>
					<path class="st3" d="M18314.8,4177.6c-315.4-74-568-370-652.5-763c-23.4-109-28.2-308-11.3-430c51.5-367,265.6-676,552-797
						c415.2-176,874.7,88,1037.2,598c94.1,295,69.2,645-65.2,917c-109.4,222-296.9,393-503.7,462
						C18589.2,4191.6,18401.7,4198.6,18314.8,4177.6z M18628.7,3882.6c179.4-62,328.3-229,398.3-445c125.5-390-43.5-844-364.5-980
						c-332.3-140-684,97-778.1,526c-21.7,97-20.1,271,3.2,373c57.1,249,216.4,453,407.9,521
						C18404.1,3916.6,18523.2,3918.6,18628.7,3882.6z"/>
					<path class="st3" d="M24835.4,4178.6c-339.5-81-597-399-666.2-825c-18.5-112-12.8-332,10.5-443c39.5-183,114.3-345,220.5-476
						c255-317,643.7-392,963.9-186c382.2,245,548.7,800,389.4,1301c-40.2,129-90.9,221-180.2,333c-118.3,149-230.9,231-385.4,282
						C25108.3,4190.6,24919.2,4198.6,24835.4,4178.6z M25133.3,3886.6c193.9-62,350.8-241,416.8-475c45.8-160,46.7-323,2.4-489
						c-111.1-414-492.5-619-814.3-439c-122.3,68-229.4,196-288.1,344c-49.9,127-62.8,197-62.8,335c0,139,12.9,208,65.2,340
						c66.8,169,202.7,313,352.4,374C24899.9,3914.6,25034.2,3918.6,25133.3,3886.6z"/>
				</g>
			</g>
		</g>
	</g>
</g>
<g id="Layer_2">
	<rect x="0" y="62.7" class="st4" width="1608.6" height="70"/>
	<rect x="0" y="293.9" class="st5" width="1608.6" height="70"/>
	<rect x="0" y="181.8" class="st6" width="1608.6" height="70"/>
</g>
</svg>
