<?xml version="1.0" encoding="utf-8"?>
<!-- Generator: Adobe Illustrator 21.0.0, SVG Export Plug-In . SVG Version: 6.00 Build 0)  -->
<svg version="1.1" id="Layer_1" xmlns="http://www.w3.org/2000/svg" xmlns:xlink="http://www.w3.org/1999/xlink" x="0px" y="0px"
	 viewBox="0 0 2650.6 426.7" style="enable-background:new 0 0 2650.6 426.7;" xml:space="preserve">
<style type="text/css">
	.st0{opacity:8.000000e-02;}
	.st1{fill:#DBDBDB;}
	.st2{fill:#E5E5E5;}
	.st3{fill:#231F20;}
	.st4{fill:#FF9797;}
	.st5{fill:#66FF6D;}
	.st6{fill:#FCF460;}
</style>
<g id="Layer_1_1_" class="st0">
	<g>
		<g>
			<g transform="translate(0.000000,640.000000) scale(0.100000,-0.100000)">
				<path d="M7224,6323.6l-35.4-29l-90.9,9c-457,46-1063.7,67-1435.4,51c-578.5-26-858.5-82-1110.4-223c-303.3-170-844-531-1363-911
					l-161.7-118h-188.3c-316.2,0-737.8-43-1230.3-126c-309-51-588.2-121-905.2-225c-414.4-136-604.3-252-655-400
					c-44.3-127-58.7-277-41-427c4-37,11.3-116,16.1-177c4.8-60,14.5-155,20.9-211c12.1-94,12.1-107-0.8-180
					c-28.2-165-25.7-236,11.3-303c28.2-54,65.2-84,131.2-109c60.3-23,214.8-47,371.7-57l103.8-7l-5.6,48
					c-19.3,169-21.7,219-17.7,306c17.7,349,149.7,639,379,830c188.3,157,399.1,223,604.3,187c203.6-35,401.5-162,559.2-358
					c99.8-125,154.5-239,197.1-416c20.9-85,22.5-102,22.5-290c0.8-156-2.4-217-13.7-279c-7.2-43-13.7-82-13.7-87s998.5-9,2402.6-9
					H7179l-5.6,47c-2.4,27-7.2,113-9.7,193c-16.9,471,121.5,809,427.3,1047c256.7,200,581.7,213,860.9,35
					c309-198,478.8-561,478.8-1025v-109l29.8,6c16.9,3,188.3,24,380.6,46c528.6,60,582.5,71,683.1,135c45.1,28,68.4,59,80.5,107
					c10.5,38,62.8,106,119.9,153c18.5,15,35.4,37,37.8,49c18.5,111,21.7,151,16.9,236c-3.2,68-1.6,112,7.2,155
					c16.1,82,15.3,136-4.8,273c-23.3,167-53.9,244-107.8,277l-29,17l5.6,81c12.1,175,8.9,287-12.1,361c-22.5,81-24.1,153-4.8,194
					c14.5,29,13.7,29-18.5,99l-33,70l-167.4,6c-195.5,8-288.9,19-404.7,52c-50.7,14-127.1,26-190.7,29c-136.8,9-196.3,28-335.5,111
					c-148.1,88-458.6,249-990.5,512c-241.4,119-440.1,223-447.4,233c-7.2,11-16.1,48-18.5,84c-6.4,69-17.7,90-57.9,106
					C7412.3,6415.6,7295.6,6382.6,7224,6323.6z M6085.5,6150.6c458.6-6,962.3-64,1248.8-144c195.5-54,432.9-174,566.5-286
					c62.8-53,74.8-89,70.8-213c-3.2-65-8-92-29.8-146c-53.1-135-127.9-208-254.3-248c-87.7-28-325.9-41-1428.2-76
					c-356.4-11-456.2-12-464.3-2c-7.2,9-2.4,70,17.7,257c56.3,505,99.8,820,117.5,847C5937.4,6149.6,5972,6152.6,6085.5,6150.6z
					 M5560.9,6128.6c82.1,7,86.9,6,86.1-12c0-10-62.8-257-138.4-549l-139.2-530H4638h-732.2l2.4,30c8,121,5.6,174-11.3,201
					c-24.9,42-52.3,63-91.7,72c-21.7,5-37,13-38.6,22c-3.2,26,243,242,412.8,362c144,102,287.3,182,410.4,229
					c136.8,52,423.2,110,728.2,149C5404,6112.6,5513.4,6124.6,5560.9,6128.6z"/>
				<path d="M7834.7,4164.6c-206.8-69-394.3-240-503.7-462c-134.4-272-159.3-622-65.2-917c162.5-510,622-774,1037.2-598
					c286.4,121,500.5,430,552,797c16.9,122,12.1,321-11.3,430c-84.5,393-337.1,689-652.5,763
					C8104.3,4198.6,7916.8,4191.6,7834.7,4164.6z M8210.5,3877.6c191.5-68,350.8-272,407.9-521c23.3-102,24.9-276,3.2-373
					c-94.1-429-445.8-666-778.1-526c-321,136-490,590-364.5,980c70,216,218.9,383,398.3,445
					C7982.8,3918.6,8101.9,3916.6,8210.5,3877.6z"/>
				<path d="M1318.1,4164.6c-154.5-51-267.1-133-385.4-282c-89.3-112-140-204-180.2-333c-159.3-501,7.2-1056,389.4-1301
					c320.2-206,708.9-131,963.9,186c106.2,131,181,293,220.5,476c23.3,111,29,331,10.5,443c-69.2,426-326.7,744-666.2,825
					C1586.8,4198.6,1397.7,4190.6,1318.1,4164.6z M1701.1,3876.6c149.7-61,285.6-205,352.4-374c52.3-132,65.2-201,65.2-340
					c0-138-12.9-208-62.8-335c-58.7-148-165.8-276-288.1-344c-321.8-180-703.2,25-814.3,439c-44.3,166-43.4,329,2.4,489
					c66,234,222.9,413,416.8,475C1471.8,3918.6,1606.1,3914.6,1701.1,3876.6z"/>
			</g>
		</g>
		<g>
			<g>
				<g transform="translate(0.000000,640.000000) scale(0.100000,-0.100000)">
					<path class="st1" d="M7224,6323.6l-35.4-29l-90.9,9c-457,46-1063.7,67-1435.4,51c-578.5-26-858.5-82-1110.4-223
						c-303.3-170-844-531-1363-911l-161.7-118h-188.3c-316.2,0-737.8-43-1230.3-126c-309-51-588.2-121-905.2-225
						c-414.4-136-604.3-252-655-400c-44.3-127-58.7-277-41-427c4-37,11.3-116,16.1-177c4.8-60,14.5-155,20.9-211
						c12.1-94,12.1-107-0.8-180c-28.2-165-25.7-236,11.3-303c28.2-54,65.2-84,131.2-109c60.3-23,214.8-47,371.7-57l103.8-7l-5.6,48
						c-19.3,169-21.7,219-17.7,306c17.7,349,149.7,639,379,830c188.3,157,399.1,223,604.3,187c203.6-35,401.5-162,559.2-358
						c99.8-125,154.5-239,197.1-416c20.9-85,22.5-102,22.5-290c0.8-156-2.4-217-13.7-279c-7.2-43-13.7-82-13.7-87s998.5-9,2402.6-9
						H7179l-5.6,47c-2.4,27-7.2,113-9.7,193c-16.9,471,121.5,809,427.3,1047c256.7,200,581.7,213,860.9,35
						c309-198,478.8-561,478.8-1025v-109l29.8,6c16.9,3,188.3,24,380.6,46c528.6,60,582.5,71,683.1,135c45.1,28,68.4,59,80.5,107
						c10.5,38,62.8,106,119.9,153c18.5,15,35.4,37,37.8,49c18.5,111,21.7,151,16.9,236c-3.2,68-1.6,112,7.2,155
						c16.1,82,15.3,136-4.8,273c-23.3,167-53.9,244-107.8,277l-29,17l5.6,81c12.1,175,8.9,287-12.1,361c-22.5,81-24.1,153-4.8,194
						c14.5,29,13.7,29-18.5,99l-33,70l-167.4,6c-195.5,8-288.9,19-404.7,52c-50.7,14-127.1,26-190.7,29c-136.8,9-196.3,28-335.5,111
						c-148.1,88-458.6,249-990.5,512c-241.4,119-440.1,223-447.4,233c-7.2,11-16.1,48-18.5,84c-6.4,69-17.7,90-57.9,106
						C7412.3,6415.6,7295.6,6382.6,7224,6323.6z M6085.5,6150.6c458.6-6,962.3-64,1248.8-144c195.5-54,432.9-174,566.5-286
						c62.8-53,74.8-89,70.8-213c-3.2-65-8-92-29.8-146c-53.1-135-127.9-208-254.3-248c-87.7-28-325.9-41-1428.2-76
						c-356.4-11-456.2-12-464.3-2c-7.2,9-2.4,70,17.7,257c56.3,505,99.8,820,117.5,847C5937.4,6149.6,5972,6152.6,6085.5,6150.6z
						 M5560.9,6128.6c82.1,7,86.9,6,86.1-12c0-10-62.8-257-138.4-549l-139.2-530H4638h-732.2l2.4,30c8,121,5.6,174-11.3,201
						c-24.9,42-52.3,63-91.7,72c-21.7,5-37,13-38.6,22c-3.2,26,243,242,412.8,362c144,102,287.3,182,410.4,229
						c136.8,52,423.2,110,728.2,149C5404,6112.6,5513.4,6124.6,5560.9,6128.6z"/>
					<path class="st1" d="M7834.7,4164.6c-206.8-69-394.3-240-503.7-462c-134.4-272-159.3-622-65.2-917
						c162.5-510,622-774,1037.2-598c286.4,121,500.5,430,552,797c16.9,122,12.1,321-11.3,430c-84.5,393-337.1,689-652.5,763
						C8104.3,4198.6,7916.8,4191.6,7834.7,4164.6z M8210.5,3877.6c191.5-68,350.8-272,407.9-521c23.3-102,24.9-276,3.2-373
						c-94.1-429-445.8-666-778.1-526c-321,136-490,590-364.5,980c70,216,218.9,383,398.3,445
						C7982.8,3918.6,8101.9,3916.6,8210.5,3877.6z"/>
					<path class="st1" d="M1318.1,4164.6c-154.5-51-267.1-133-385.4-282c-89.3-112-140-204-180.2-333
						c-159.3-501,7.2-1056,389.4-1301c320.2-206,708.9-131,963.9,186c106.2,131,181,293,220.5,476c23.3,111,29,331,10.5,443
						c-69.2,426-326.7,744-666.2,825C1586.8,4198.6,1397.7,4190.6,1318.1,4164.6z M1701.1,3876.6c149.7-61,285.6-205,352.4-374
						c52.3-132,65.2-201,65.2-340c0-138-12.9-208-62.8-335c-58.7-148-165.8-276-288.1-344c-321.8-180-703.2,25-814.3,439
						c-44.3,166-43.4,329,2.4,489c66,234,222.9,413,416.8,475C1471.8,3918.6,1606.1,3914.6,1701.1,3876.6z"/>
				</g>
			</g>
			<g>
				<g transform="translate(0.000000,640.000000) scale(0.100000,-0.100000)">
					<path class="st2" d="M7224,6323.6l-35.4-29l-90.9,9c-457,46-1063.7,67-1435.4,51c-578.5-26-858.5-82-1110.4-223
						c-303.3-170-844-531-1363-911l-161.7-118h-188.3c-316.2,0-737.8-43-1230.3-126c-309-51-588.2-121-905.2-225
						c-414.4-136-604.3-252-655-400c-44.3-127-58.7-277-41-427c4-37,11.3-116,16.1-177c4.8-60,14.5-155,20.9-211
						c12.1-94,12.1-107-0.8-180c-28.2-165-25.7-236,11.3-303c28.2-54,65.2-84,131.2-109c60.3-23,214.8-47,371.7-57l103.8-7l-5.6,48
						c-19.3,169-21.7,219-17.7,306c17.7,349,149.7,639,379,830c188.3,157,399.1,223,604.3,187c203.6-35,401.5-162,559.2-358
						c99.8-125,154.5-239,197.1-416c20.9-85,22.5-102,22.5-290c0.8-156-2.4-217-13.7-279c-7.2-43-13.7-82-13.7-87s998.5-9,2402.6-9
						H7179l-5.6,47c-2.4,27-7.2,113-9.7,193c-16.9,471,121.5,809,427.3,1047c256.7,200,581.7,213,860.9,35
						c309-198,478.8-561,478.8-1025v-109l29.8,6c16.9,3,188.3,24,380.6,46c528.6,60,582.5,71,683.1,135c45.1,28,68.4,59,80.5,107
						c10.5,38,62.8,106,119.9,153c18.5,15,35.4,37,37.8,49c18.5,111,21.7,151,16.9,236c-3.2,68-1.6,112,7.2,155
						c16.1,82,15.3,136-4.8,273c-23.3,167-53.9,244-107.8,277l-29,17l5.6,81c12.1,175,8.9,287-12.1,361c-22.5,81-24.1,153-4.8,194
						c14.5,29,13.7,29-18.5,99l-33,70l-167.4,6c-195.5,8-288.9,19-404.7,52c-50.7,14-127.1,26-190.7,29c-136.8,9-196.3,28-335.5,111
						c-148.1,88-458.6,249-990.5,512c-241.4,119-440.1,223-447.4,233c-7.2,11-16.1,48-18.5,84c-6.4,69-17.7,90-57.9,106
						C7412.3,6415.6,7295.6,6382.6,7224,6323.6z M6085.5,6150.6c458.6-6,962.3-64,1248.8-144c195.5-54,432.9-174,566.5-286
						c62.8-53,74.8-89,70.8-213c-3.2-65-8-92-29.8-146c-53.1-135-127.9-208-254.3-248c-87.7-28-325.9-41-1428.2-76
						c-356.4-11-456.2-12-464.3-2c-7.2,9-2.4,70,17.7,257c56.3,505,99.8,820,117.5,847C5937.4,6149.6,5972,6152.6,6085.5,6150.6z
						 M5560.9,6128.6c82.1,7,86.9,6,86.1-12c0-10-62.8-257-138.4-549l-139.2-530H4638h-732.2l2.4,30c8,121,5.6,174-11.3,201
						c-24.9,42-52.3,63-91.7,72c-21.7,5-37,13-38.6,22c-3.2,26,243,242,412.8,362c144,102,287.3,182,410.4,229
						c136.8,52,423.2,110,728.2,149C5404,6112.6,5513.4,6124.6,5560.9,6128.6z"/>
					<path class="st2" d="M7834.7,4164.6c-206.8-69-394.3-240-503.7-462c-134.4-272-159.3-622-65.2-917
						c162.5-510,622-774,1037.2-598c286.4,121,500.5,430,552,797c16.9,122,12.1,321-11.3,430c-84.5,393-337.1,689-652.5,763
						C8104.3,4198.6,7916.8,4191.6,7834.7,4164.6z M8210.5,3877.6c191.5-68,350.8-272,407.9-521c23.3-102,24.9-276,3.2-373
						c-94.1-429-445.8-666-778.1-526c-321,136-490,590-364.5,980c70,216,218.9,383,398.3,445
						C7982.8,3918.6,8101.9,3916.6,8210.5,3877.6z"/>
					<path class="st2" d="M1318.1,4164.6c-154.5-51-267.1-133-385.4-282c-89.3-112-140-204-180.2-333
						c-159.3-501,7.2-1056,389.4-1301c320.2-206,708.9-131,963.9,186c106.2,131,181,293,220.5,476c23.3,111,29,331,10.5,443
						c-69.2,426-326.7,744-666.2,825C1586.8,4198.6,1397.7,4190.6,1318.1,4164.6z M1701.1,3876.6c149.7-61,285.6-205,352.4-374
						c52.3-132,65.2-201,65.2-340c0-138-12.9-208-62.8-335c-58.7-148-165.8-276-288.1-344c-321.8-180-703.2,25-814.3,439
						c-44.3,166-43.4,329,2.4,489c66,234,222.9,413,416.8,475C1471.8,3918.6,1606.1,3914.6,1701.1,3876.6z"/>
				</g>
			</g>
		</g>
	</g>
	<g>
		<g>
			<g transform="translate(0.000000,640.000000) scale(0.100000,-0.100000)">
				<path class="st3" d="M7224,6323.6l-35.4-29l-90.9,9c-457,46-1063.7,67-1435.4,51c-578.5-26-858.5-82-1110.4-223
					c-303.3-170-844-531-1363-911l-161.7-118h-188.3c-316.2,0-737.8-43-1230.3-126c-309-51-588.2-121-905.2-225
					c-414.4-136-604.3-252-655-400c-44.3-127-58.7-277-41-427c4-37,11.3-116,16.1-177c4.8-60,14.5-155,20.9-211
					c12.1-94,12.1-107-0.8-180c-28.2-165-25.7-236,11.3-303c28.2-54,65.2-84,131.2-109c60.3-23,214.8-47,371.7-57l103.8-7l-5.6,48
					c-19.3,169-21.7,219-17.7,306c17.7,349,149.7,639,379,830c188.3,157,399.1,223,604.3,187c203.6-35,401.5-162,559.2-358
					c99.8-125,154.5-239,197.1-416c20.9-85,22.5-102,22.5-290c0.8-156-2.4-217-13.7-279c-7.2-43-13.7-82-13.7-87s998.5-9,2402.6-9
					H7179l-5.6,47c-2.4,27-7.2,113-9.7,193c-16.9,471,121.5,809,427.3,1047c256.7,200,581.7,213,860.9,35
					c309-198,478.8-561,478.8-1025v-109l29.8,6c16.9,3,188.3,24,380.6,46c528.6,60,582.5,71,683.1,135c45.1,28,68.4,59,80.5,107
					c10.5,38,62.8,106,119.9,153c18.5,15,35.4,37,37.8,49c18.5,111,21.7,151,16.9,236c-3.2,68-1.6,112,7.2,155
					c16.1,82,15.3,136-4.8,273c-23.3,167-53.9,244-107.8,277l-29,17l5.6,81c12.1,175,8.9,287-12.1,361c-22.5,81-24.1,153-4.8,194
					c14.5,29,13.7,29-18.5,99l-33,70l-167.4,6c-195.5,8-288.9,19-404.7,52c-50.7,14-127.1,26-190.7,29c-136.8,9-196.3,28-335.5,111
					c-148.1,88-458.6,249-990.5,512c-241.4,119-440.1,223-447.4,233c-7.2,11-16.1,48-18.5,84c-6.4,69-17.7,90-57.9,106
					C7412.3,6415.6,7295.6,6382.6,7224,6323.6z M6085.5,6150.6c458.6-6,962.3-64,1248.8-144c195.5-54,432.9-174,566.5-286
					c62.8-53,74.8-89,70.8-213c-3.2-65-8-92-29.8-146c-53.1-135-127.9-208-254.3-248c-87.7-28-325.9-41-1428.2-76
					c-356.4-11-456.2-12-464.3-2c-7.2,9-2.4,70,17.7,257c56.3,505,99.8,820,117.5,847C5937.4,6149.6,5972,6152.6,6085.5,6150.6z
					 M5560.9,6128.6c82.1,7,86.9,6,86.1-12c0-10-62.8-257-138.4-549l-139.2-530H4638h-732.2l2.4,30c8,121,5.6,174-11.3,201
					c-24.9,42-52.3,63-91.7,72c-21.7,5-37,13-38.6,22c-3.2,26,243,242,412.8,362c144,102,287.3,182,410.4,229
					c136.8,52,423.2,110,728.2,149C5404,6112.6,5513.4,6124.6,5560.9,6128.6z"/>
				<path class="st3" d="M7834.7,4164.6c-206.8-69-394.3-240-503.7-462c-134.4-272-159.3-622-65.2-917c162.5-510,622-774,1037.2-598
					c286.4,121,500.5,430,552,797c16.9,122,12.1,321-11.3,430c-84.5,393-337.1,689-652.5,763
					C8104.3,4198.6,7916.8,4191.6,7834.7,4164.6z M8210.5,3877.6c191.5-68,350.8-272,407.9-521c23.3-102,24.9-276,3.2-373
					c-94.1-429-445.8-666-778.1-526c-321,136-490,590-364.5,980c70,216,218.9,383,398.3,445
					C7982.8,3918.6,8101.9,3916.6,8210.5,3877.6z"/>
				<path class="st3" d="M1318.1,4164.6c-154.5-51-267.1-133-385.4-282c-89.3-112-140-204-180.2-333c-159.3-501,7.2-1056,389.4-1301
					c320.2-206,708.9-131,963.9,186c106.2,131,181,293,220.5,476c23.3,111,29,331,10.5,443c-69.2,426-326.7,744-666.2,825
					C1586.8,4198.6,1397.7,4190.6,1318.1,4164.6z M1701.1,3876.6c149.7-61,285.6-205,352.4-374c52.3-132,65.2-201,65.2-340
					c0-138-12.9-208-62.8-335c-58.7-148-165.8-276-288.1-344c-321.8-180-703.2,25-814.3,439c-44.3,166-43.4,329,2.4,489
					c66,234,222.9,413,416.8,475C1471.8,3918.6,1606.1,3914.6,1701.1,3876.6z"/>
			</g>
		</g>
		<g>
			<g>
				<g transform="translate(0.000000,640.000000) scale(0.100000,-0.100000)">
					<path class="st3" d="M7224,6323.6l-35.4-29l-90.9,9c-457,46-1063.7,67-1435.4,51c-578.5-26-858.5-82-1110.4-223
						c-303.3-170-844-531-1363-911l-161.7-118h-188.3c-316.2,0-737.8-43-1230.3-126c-309-51-588.2-121-905.2-225
						c-414.4-136-604.3-252-655-400c-44.3-127-58.7-277-41-427c4-37,11.3-116,16.1-177c4.8-60,14.5-155,20.9-211
						c12.1-94,12.1-107-0.8-180c-28.2-165-25.7-236,11.3-303c28.2-54,65.2-84,131.2-109c60.3-23,214.8-47,371.7-57l103.8-7l-5.6,48
						c-19.3,169-21.7,219-17.7,306c17.7,349,149.7,639,379,830c188.3,157,399.1,223,604.3,187c203.6-35,401.5-162,559.2-358
						c99.8-125,154.5-239,197.1-416c20.9-85,22.5-102,22.5-290c0.8-156-2.4-217-13.7-279c-7.2-43-13.7-82-13.7-87s998.5-9,2402.6-9
						H7179l-5.6,47c-2.4,27-7.2,113-9.7,193c-16.9,471,121.5,809,427.3,1047c256.7,200,581.7,213,860.9,35
						c309-198,478.8-561,478.8-1025v-109l29.8,6c16.9,3,188.3,24,380.6,46c528.6,60,582.5,71,683.1,135c45.1,28,68.4,59,80.5,107
						c10.5,38,62.8,106,119.9,153c18.5,15,35.4,37,37.8,49c18.5,111,21.7,151,16.9,236c-3.2,68-1.6,112,7.2,155
						c16.1,82,15.3,136-4.8,273c-23.3,167-53.9,244-107.8,277l-29,17l5.6,81c12.1,175,8.9,287-12.1,361c-22.5,81-24.1,153-4.8,194
						c14.5,29,13.7,29-18.5,99l-33,70l-167.4,6c-195.5,8-288.9,19-404.7,52c-50.7,14-127.1,26-190.7,29c-136.8,9-196.3,28-335.5,111
						c-148.1,88-458.6,249-990.5,512c-241.4,119-440.1,223-447.4,233c-7.2,11-16.1,48-18.5,84c-6.4,69-17.7,90-57.9,106
						C7412.3,6415.6,7295.6,6382.6,7224,6323.6z M6085.5,6150.6c458.6-6,962.3-64,1248.8-144c195.5-54,432.9-174,566.5-286
						c62.8-53,74.8-89,70.8-213c-3.2-65-8-92-29.8-146c-53.1-135-127.9-208-254.3-248c-87.7-28-325.9-41-1428.2-76
						c-356.4-11-456.2-12-464.3-2c-7.2,9-2.4,70,17.7,257c56.3,505,99.8,820,117.5,847C5937.4,6149.6,5972,6152.6,6085.5,6150.6z
						 M5560.9,6128.6c82.1,7,86.9,6,86.1-12c0-10-62.8-257-138.4-549l-139.2-530H4638h-732.2l2.4,30c8,121,5.6,174-11.3,201
						c-24.9,42-52.3,63-91.7,72c-21.7,5-37,13-38.6,22c-3.2,26,243,242,412.8,362c144,102,287.3,182,410.4,229
						c136.8,52,423.2,110,728.2,149C5404,6112.6,5513.4,6124.6,5560.9,6128.6z"/>
					<path class="st3" d="M7834.7,4164.6c-206.8-69-394.3-240-503.7-462c-134.4-272-159.3-622-65.2-917
						c162.5-510,622-774,1037.2-598c286.4,121,500.5,430,552,797c16.9,122,12.1,321-11.3,430c-84.5,393-337.1,689-652.5,763
						C8104.3,4198.6,7916.8,4191.6,7834.7,4164.6z M8210.5,3877.6c191.5-68,350.8-272,407.9-521c23.3-102,24.9-276,3.2-373
						c-94.1-429-445.8-666-778.1-526c-321,136-490,590-364.5,980c70,216,218.9,383,398.3,445
						C7982.8,3918.6,8101.9,3916.6,8210.5,3877.6z"/>
					<path class="st3" d="M1318.1,4164.6c-154.5-51-267.1-133-385.4-282c-89.3-112-140-204-180.2-333
						c-159.3-501,7.2-1056,389.4-1301c320.2-206,708.9-131,963.9,186c106.2,131,181,293,220.5,476c23.3,111,29,331,10.5,443
						c-69.2,426-326.7,744-666.2,825C1586.8,4198.6,1397.7,4190.6,1318.1,4164.6z M1701.1,3876.6c149.7-61,285.6-205,352.4-374
						c52.3-132,65.2-201,65.2-340c0-138-12.9-208-62.8-335c-58.7-148-165.8-276-288.1-344c-321.8-180-703.2,25-814.3,439
						c-44.3,166-43.4,329,2.4,489c66,234,222.9,413,416.8,475C1471.8,3918.6,1606.1,3914.6,1701.1,3876.6z"/>
				</g>
			</g>
			<g>
				<g transform="translate(0.000000,640.000000) scale(0.100000,-0.100000)">
					<path class="st3" d="M7224,6323.6l-35.4-29l-90.9,9c-457,46-1063.7,67-1435.4,51c-578.5-26-858.5-82-1110.4-223
						c-303.3-170-844-531-1363-911l-161.7-118h-188.3c-316.2,0-737.8-43-1230.3-126c-309-51-588.2-121-905.2-225
						c-414.4-136-604.3-252-655-400c-44.3-127-58.7-277-41-427c4-37,11.3-116,16.1-177c4.8-60,14.5-155,20.9-211
						c12.1-94,12.1-107-0.8-180c-28.2-165-25.7-236,11.3-303c28.2-54,65.2-84,131.2-109c60.3-23,214.8-47,371.7-57l103.8-7l-5.6,48
						c-19.3,169-21.7,219-17.7,306c17.7,349,149.7,639,379,830c188.3,157,399.1,223,604.3,187c203.6-35,401.5-162,559.2-358
						c99.8-125,154.5-239,197.1-416c20.9-85,22.5-102,22.5-290c0.8-156-2.4-217-13.7-279c-7.2-43-13.7-82-13.7-87s998.5-9,2402.6-9
						H7179l-5.6,47c-2.4,27-7.2,113-9.7,193c-16.9,471,121.5,809,427.3,1047c256.7,200,581.7,213,860.9,35
						c309-198,478.8-561,478.8-1025v-109l29.8,6c16.9,3,188.3,24,380.6,46c528.6,60,582.5,71,683.1,135c45.1,28,68.4,59,80.5,107
						c10.5,38,62.8,106,119.9,153c18.5,15,35.4,37,37.8,49c18.5,111,21.7,151,16.9,236c-3.2,68-1.6,112,7.2,155
						c16.1,82,15.3,136-4.8,273c-23.3,167-53.9,244-107.8,277l-29,17l5.6,81c12.1,175,8.9,287-12.1,361c-22.5,81-24.1,153-4.8,194
						c14.5,29,13.7,29-18.5,99l-33,70l-167.4,6c-195.5,8-288.9,19-404.7,52c-50.7,14-127.1,26-190.7,29c-136.8,9-196.3,28-335.5,111
						c-148.1,88-458.6,249-990.5,512c-241.4,119-440.1,223-447.4,233c-7.2,11-16.1,48-18.5,84c-6.4,69-17.7,90-57.9,106
						C7412.3,6415.6,7295.6,6382.6,7224,6323.6z M6085.5,6150.6c458.6-6,962.3-64,1248.8-144c195.5-54,432.9-174,566.5-286
						c62.8-53,74.8-89,70.8-213c-3.2-65-8-92-29.8-146c-53.1-135-127.9-208-254.3-248c-87.7-28-325.9-41-1428.2-76
						c-356.4-11-456.2-12-464.3-2c-7.2,9-2.4,70,17.7,257c56.3,505,99.8,820,117.5,847C5937.4,6149.6,5972,6152.6,6085.5,6150.6z
						 M5560.9,6128.6c82.1,7,86.9,6,86.1-12c0-10-62.8-257-138.4-549l-139.2-530H4638h-732.2l2.4,30c8,121,5.6,174-11.3,201
						c-24.9,42-52.3,63-91.7,72c-21.7,5-37,13-38.6,22c-3.2,26,243,242,412.8,362c144,102,287.3,182,410.4,229
						c136.8,52,423.2,110,728.2,149C5404,6112.6,5513.4,6124.6,5560.9,6128.6z"/>
					<path class="st3" d="M7834.7,4164.6c-206.8-69-394.3-240-503.7-462c-134.4-272-159.3-622-65.2-917
						c162.5-510,622-774,1037.2-598c286.4,121,500.5,430,552,797c16.9,122,12.1,321-11.3,430c-84.5,393-337.1,689-652.5,763
						C8104.3,4198.6,7916.8,4191.6,7834.7,4164.6z M8210.5,3877.6c191.5-68,350.8-272,407.9-521c23.3-102,24.9-276,3.2-373
						c-94.1-429-445.8-666-778.1-526c-321,136-490,590-364.5,980c70,216,218.9,383,398.3,445
						C7982.8,3918.6,8101.9,3916.6,8210.5,3877.6z"/>
					<path class="st3" d="M1318.1,4164.6c-154.5-51-267.1-133-385.4-282c-89.3-112-140-204-180.2-333
						c-159.3-501,7.2-1056,389.4-1301c320.2-206,708.9-131,963.9,186c106.2,131,181,293,220.5,476c23.3,111,29,331,10.5,443
						c-69.2,426-326.7,744-666.2,825C1586.8,4198.6,1397.7,4190.6,1318.1,4164.6z M1701.1,3876.6c149.7-61,285.6-205,352.4-374
						c52.3-132,65.2-201,65.2-340c0-138-12.9-208-62.8-335c-58.7-148-165.8-276-288.1-344c-321.8-180-703.2,25-814.3,439
						c-44.3,166-43.4,329,2.4,489c66,234,222.9,413,416.8,475C1471.8,3918.6,1606.1,3914.6,1701.1,3876.6z"/>
				</g>
			</g>
			<path class="st3" d="M1028.2,223.9c-2.3-16.7-5.4-24.4-10.8-27.7l-2.9-1.7l0.6-8.1c1.2-17.5,0.9-28.7-1.2-36.1
				c-2.3-8.1-2.4-15.3-0.5-19.4c1.4-2.9,1.4-2.9-1.9-9.9l-3.3-7l-16.7-0.6c-19.6-0.8-28.9-1.9-40.5-5.2c-5.1-1.4-12.7-2.6-19.1-2.9
				c-13.7-0.9-19.6-2.8-33.6-11.1c-14.8-8.8-45.9-24.9-99-51.2c-24.1-11.9-44-22.3-44.7-23.3c-0.7-1.1-1.6-4.8-1.9-8.4
				c-0.6-6.9-1.8-9-5.8-10.6c-5.7-2.3-17.4,1-24.5,6.9l-3.5,2.9l-9.1-0.9C664.1,5,603.4,2.9,566.2,4.5c-57.9,2.6-85.9,8.2-111,22.3
				c-28.3,15.8-77.2,48.3-125.7,83.4c-9.2,2.9-18.4,6-27.5,9.4c-10.1,3.4-20.1,6.8-30.2,10.3c-30,0.9-67.7,5.1-110.9,12.4
				c-30.9,5.1-58.8,12.1-90.5,22.5c-41.4,13.6-60.4,25.2-65.5,40c-4.4,12.7-5.9,27.7-4.1,42.7c0.4,3.7,1.1,11.6,1.6,17.7
				c0.5,6,1.4,15.5,2.1,21.1c1.2,9.4,1.2,10.7-0.1,18c-2.8,16.5-2.6,23.6,1.1,30.3c2.8,5.4,6.5,8.4,13.1,10.9
				c6,2.3,21.5,4.7,37.2,5.7l10.4,0.7l-0.1-1c0.3,0.1,0.5,0.1,0.8,0.1h5.3c5.9,26.9,20.6,50.4,42,64.1c32,20.6,70.9,13.1,96.4-18.6
				c8.8-10.9,15.5-23.9,19.7-38.5c2.4,0,4.8-0.1,7.1-0.2c3.9,0.5,102.5,0.9,240.1,0.9h233c0.5,0.2,1,0.3,1.5,0.3h13.8
				c0.2,0.8,0.5,1.6,0.7,2.4c16.3,51,62.2,77.4,103.7,59.8c28.6-12.1,50-43,55.2-79.7c0.1-0.5,0.1-1,0.2-1.5h6.5
				c0.3,0,0.6,0,0.9-0.1v0l3-0.6c1.7-0.3,18.8-2.4,38.1-4.6c52.9-6,58.3-7.1,68.3-13.5c4.5-2.8,6.8-5.9,8-10.7
				c1-3.8,6.3-10.6,12-15.3c1.9-1.5,3.5-3.7,3.8-4.9c1.9-11.1,2.2-15.1,1.7-23.6c-0.3-6.8-0.2-11.2,0.7-15.5
				C1030.3,243,1030.2,237.6,1028.2,223.9z"/>
		</g>
	</g>
</g>
<g id="Layer_2">
	<rect x="1042" y="62.7" class="st4" width="1608.6" height="70"/>
	<rect x="1042" y="293.9" class="st5" width="1608.6" height="70"/>
	<rect x="1042" y="181.8" class="st6" width="1608.6" height="70"/>
</g>
</svg>
