<?xml version="1.0" encoding="utf-8"?>
<!-- Generator: Adobe Illustrator 21.0.0, SVG Export Plug-In . SVG Version: 6.00 Build 0)  -->
<svg version="1.1" id="Layer_1" xmlns="http://www.w3.org/2000/svg" xmlns:xlink="http://www.w3.org/1999/xlink" x="0px" y="0px"
	 viewBox="0 0 1735.5 426.7" style="enable-background:new 0 0 1735.5 426.7;" xml:space="preserve">
<style type="text/css">
	.st0{opacity:8.000000e-02;}
	.st1{fill:#DBDBDB;}
	.st2{fill:#E5E5E5;}
	.st3{fill:#231F20;}
	.st4{fill:#FF9797;}
	.st5{fill:#66FF6D;}
	.st6{fill:#FCF460;}
</style>
<g id="Layer_1_1_" class="st0">
	<g>
		<g>
			<g transform="translate(0.000000,640.000000) scale(0.100000,-0.100000)">
				<path d="M8978.1,6323.6l-44-29l-113,9c-568,46-1322,67-1784,51c-719-26-1067-82-1380-223c-377-170-1049-531-1694-911l-201-118
					h-234c-393,0-917-43-1529-126c-384-51-731-121-1125-225c-515-136-751-252-814-400c-55-127-73-277-51-427c5-37,14-116,20-177
					c6-60,18-155,26-211c15-94,15-107-1-180c-35-165-32-236,14-303c35-54,81-84,163-109c75-23,267-47,462-57l129-7l-7,48
					c-24,169-27,219-22,306c22,349,186,639,471,830c234,157,496,223,751,187c253-35,499-162,695-358c124-125,192-239,245-416
					c26-85,28-102,28-290c1-156-3-217-17-279c-9-43-17-82-17-87s1241-9,2986-9h2987l-7,47c-3,27-9,113-12,193
					c-21,471,151,809,531,1047c319,200,723,213,1070,35c384-198,595-561,595-1025v-109l37,6c21,3,234,24,473,46
					c657,60,724,71,849,135c56,28,85,59,100,107c13,38,78,106,149,153c23,15,44,37,47,49c23,111,27,151,21,236c-4,68-2,112,9,155
					c20,82,19,136-6,273c-29,167-67,244-134,277l-36,17l7,81c15,175,11,287-15,361c-28,81-30,153-6,194c18,29,17,29-23,99l-41,70
					l-208,6c-243,8-359,19-503,52c-63,14-158,26-237,29c-170,9-244,28-417,111c-184,88-570,249-1231,512c-300,119-547,223-556,233
					c-9,11-20,48-23,84c-8,69-22,90-72,106C9212.1,6415.6,9067.1,6382.6,8978.1,6323.6z M7563.1,6150.6c570-6,1196-64,1552-144
					c243-54,538-174,704-286c78-53,93-89,88-213c-4-65-10-92-37-146c-66-135-159-208-316-248c-109-28-405-41-1775-76
					c-443-11-567-12-577-2c-9,9-3,70,22,257c70,505,124,820,146,847C7379.1,6149.6,7422.1,6152.6,7563.1,6150.6z M6911.1,6128.6
					c102,7,108,6,107-12c0-10-78-257-172-549l-173-530h-909h-910l3,30c10,121,7,174-14,201c-31,42-65,63-114,72c-27,5-46,13-48,22
					c-4,26,302,242,513,362c179,102,357,182,510,229c170,52,526,110,905,149C6716.1,6112.6,6852.1,6124.6,6911.1,6128.6z"/>
				<path d="M9737.1,4164.6c-257-69-490-240-626-462c-167-272-198-622-81-917c202-510,773-774,1289-598c356,121,622,430,686,797
					c21,122,15,321-14,430c-105,393-419,689-811,763C10072.1,4198.6,9839.1,4191.6,9737.1,4164.6z M10204.1,3877.6
					c238-68,436-272,507-521c29-102,31-276,4-373c-117-429-554-666-967-526c-399,136-609,590-453,980c87,216,272,383,495,445
					C9921.1,3918.6,10069.1,3916.6,10204.1,3877.6z"/>
				<path d="M1638.1,4164.6c-192-51-332-133-479-282c-111-112-174-204-224-333c-198-501,9-1056,484-1301c398-206,881-131,1198,186
					c132,131,225,293,274,476c29,111,36,331,13,443c-86,426-406,744-828,825C1972.1,4198.6,1737.1,4190.6,1638.1,4164.6z
					 M2114.1,3876.6c186-61,355-205,438-374c65-132,81-201,81-340c0-138-16-208-78-335c-73-148-206-276-358-344
					c-400-180-874,25-1012,439c-55,166-54,329,3,489c82,234,277,413,518,475C1829.1,3918.6,1996.1,3914.6,2114.1,3876.6z"/>
			</g>
		</g>
		<g>
			<g>
				<g transform="translate(0.000000,640.000000) scale(0.100000,-0.100000)">
					<path class="st1" d="M8978.1,6323.6l-44-29l-113,9c-568,46-1322,67-1784,51c-719-26-1067-82-1380-223
						c-377-170-1049-531-1694-911l-201-118h-234c-393,0-917-43-1529-126c-384-51-731-121-1125-225c-515-136-751-252-814-400
						c-55-127-73-277-51-427c5-37,14-116,20-177c6-60,18-155,26-211c15-94,15-107-1-180c-35-165-32-236,14-303c35-54,81-84,163-109
						c75-23,267-47,462-57l129-7l-7,48c-24,169-27,219-22,306c22,349,186,639,471,830c234,157,496,223,751,187
						c253-35,499-162,695-358c124-125,192-239,245-416c26-85,28-102,28-290c1-156-3-217-17-279c-9-43-17-82-17-87s1241-9,2986-9
						h2987l-7,47c-3,27-9,113-12,193c-21,471,151,809,531,1047c319,200,723,213,1070,35c384-198,595-561,595-1025v-109l37,6
						c21,3,234,24,473,46c657,60,724,71,849,135c56,28,85,59,100,107c13,38,78,106,149,153c23,15,44,37,47,49c23,111,27,151,21,236
						c-4,68-2,112,9,155c20,82,19,136-6,273c-29,167-67,244-134,277l-36,17l7,81c15,175,11,287-15,361c-28,81-30,153-6,194
						c18,29,17,29-23,99l-41,70l-208,6c-243,8-359,19-503,52c-63,14-158,26-237,29c-170,9-244,28-417,111c-184,88-570,249-1231,512
						c-300,119-547,223-556,233c-9,11-20,48-23,84c-8,69-22,90-72,106C9212.1,6415.6,9067.1,6382.6,8978.1,6323.6z M7563.1,6150.6
						c570-6,1196-64,1552-144c243-54,538-174,704-286c78-53,93-89,88-213c-4-65-10-92-37-146c-66-135-159-208-316-248
						c-109-28-405-41-1775-76c-443-11-567-12-577-2c-9,9-3,70,22,257c70,505,124,820,146,847
						C7379.1,6149.6,7422.1,6152.6,7563.1,6150.6z M6911.1,6128.6c102,7,108,6,107-12c0-10-78-257-172-549l-173-530h-909h-910l3,30
						c10,121,7,174-14,201c-31,42-65,63-114,72c-27,5-46,13-48,22c-4,26,302,242,513,362c179,102,357,182,510,229
						c170,52,526,110,905,149C6716.1,6112.6,6852.1,6124.6,6911.1,6128.6z"/>
					<path class="st1" d="M9737.1,4164.6c-257-69-490-240-626-462c-167-272-198-622-81-917c202-510,773-774,1289-598
						c356,121,622,430,686,797c21,122,15,321-14,430c-105,393-419,689-811,763C10072.1,4198.6,9839.1,4191.6,9737.1,4164.6z
						 M10204.1,3877.6c238-68,436-272,507-521c29-102,31-276,4-373c-117-429-554-666-967-526c-399,136-609,590-453,980
						c87,216,272,383,495,445C9921.1,3918.6,10069.1,3916.6,10204.1,3877.6z"/>
					<path class="st1" d="M1638.1,4164.6c-192-51-332-133-479-282c-111-112-174-204-224-333c-198-501,9-1056,484-1301
						c398-206,881-131,1198,186c132,131,225,293,274,476c29,111,36,331,13,443c-86,426-406,744-828,825
						C1972.1,4198.6,1737.1,4190.6,1638.1,4164.6z M2114.1,3876.6c186-61,355-205,438-374c65-132,81-201,81-340c0-138-16-208-78-335
						c-73-148-206-276-358-344c-400-180-874,25-1012,439c-55,166-54,329,3,489c82,234,277,413,518,475
						C1829.1,3918.6,1996.1,3914.6,2114.1,3876.6z"/>
				</g>
			</g>
			<g>
				<g transform="translate(0.000000,640.000000) scale(0.100000,-0.100000)">
					<path class="st2" d="M8978.1,6323.6l-44-29l-113,9c-568,46-1322,67-1784,51c-719-26-1067-82-1380-223
						c-377-170-1049-531-1694-911l-201-118h-234c-393,0-917-43-1529-126c-384-51-731-121-1125-225c-515-136-751-252-814-400
						c-55-127-73-277-51-427c5-37,14-116,20-177c6-60,18-155,26-211c15-94,15-107-1-180c-35-165-32-236,14-303c35-54,81-84,163-109
						c75-23,267-47,462-57l129-7l-7,48c-24,169-27,219-22,306c22,349,186,639,471,830c234,157,496,223,751,187
						c253-35,499-162,695-358c124-125,192-239,245-416c26-85,28-102,28-290c1-156-3-217-17-279c-9-43-17-82-17-87s1241-9,2986-9
						h2987l-7,47c-3,27-9,113-12,193c-21,471,151,809,531,1047c319,200,723,213,1070,35c384-198,595-561,595-1025v-109l37,6
						c21,3,234,24,473,46c657,60,724,71,849,135c56,28,85,59,100,107c13,38,78,106,149,153c23,15,44,37,47,49c23,111,27,151,21,236
						c-4,68-2,112,9,155c20,82,19,136-6,273c-29,167-67,244-134,277l-36,17l7,81c15,175,11,287-15,361c-28,81-30,153-6,194
						c18,29,17,29-23,99l-41,70l-208,6c-243,8-359,19-503,52c-63,14-158,26-237,29c-170,9-244,28-417,111c-184,88-570,249-1231,512
						c-300,119-547,223-556,233c-9,11-20,48-23,84c-8,69-22,90-72,106C9212.1,6415.6,9067.1,6382.6,8978.1,6323.6z M7563.1,6150.6
						c570-6,1196-64,1552-144c243-54,538-174,704-286c78-53,93-89,88-213c-4-65-10-92-37-146c-66-135-159-208-316-248
						c-109-28-405-41-1775-76c-443-11-567-12-577-2c-9,9-3,70,22,257c70,505,124,820,146,847
						C7379.1,6149.6,7422.1,6152.6,7563.1,6150.6z M6911.1,6128.6c102,7,108,6,107-12c0-10-78-257-172-549l-173-530h-909h-910l3,30
						c10,121,7,174-14,201c-31,42-65,63-114,72c-27,5-46,13-48,22c-4,26,302,242,513,362c179,102,357,182,510,229
						c170,52,526,110,905,149C6716.1,6112.6,6852.1,6124.6,6911.1,6128.6z"/>
					<path class="st2" d="M9737.1,4164.6c-257-69-490-240-626-462c-167-272-198-622-81-917c202-510,773-774,1289-598
						c356,121,622,430,686,797c21,122,15,321-14,430c-105,393-419,689-811,763C10072.1,4198.6,9839.1,4191.6,9737.1,4164.6z
						 M10204.1,3877.6c238-68,436-272,507-521c29-102,31-276,4-373c-117-429-554-666-967-526c-399,136-609,590-453,980
						c87,216,272,383,495,445C9921.1,3918.6,10069.1,3916.6,10204.1,3877.6z"/>
					<path class="st2" d="M1638.1,4164.6c-192-51-332-133-479-282c-111-112-174-204-224-333c-198-501,9-1056,484-1301
						c398-206,881-131,1198,186c132,131,225,293,274,476c29,111,36,331,13,443c-86,426-406,744-828,825
						C1972.1,4198.6,1737.1,4190.6,1638.1,4164.6z M2114.1,3876.6c186-61,355-205,438-374c65-132,81-201,81-340c0-138-16-208-78-335
						c-73-148-206-276-358-344c-400-180-874,25-1012,439c-55,166-54,329,3,489c82,234,277,413,518,475
						C1829.1,3918.6,1996.1,3914.6,2114.1,3876.6z"/>
				</g>
			</g>
		</g>
	</g>
	<g>
		<g>
			<g transform="translate(0.000000,640.000000) scale(0.100000,-0.100000)">
				<path class="st3" d="M8978.1,6323.6l-44-29l-113,9c-568,46-1322,67-1784,51c-719-26-1067-82-1380-223
					c-377-170-1049-531-1694-911l-201-118h-234c-393,0-917-43-1529-126c-384-51-731-121-1125-225c-515-136-751-252-814-400
					c-55-127-73-277-51-427c5-37,14-116,20-177c6-60,18-155,26-211c15-94,15-107-1-180c-35-165-32-236,14-303c35-54,81-84,163-109
					c75-23,267-47,462-57l129-7l-7,48c-24,169-27,219-22,306c22,349,186,639,471,830c234,157,496,223,751,187
					c253-35,499-162,695-358c124-125,192-239,245-416c26-85,28-102,28-290c1-156-3-217-17-279c-9-43-17-82-17-87s1241-9,2986-9h2987
					l-7,47c-3,27-9,113-12,193c-21,471,151,809,531,1047c319,200,723,213,1070,35c384-198,595-561,595-1025v-109l37,6
					c21,3,234,24,473,46c657,60,724,71,849,135c56,28,85,59,100,107c13,38,78,106,149,153c23,15,44,37,47,49c23,111,27,151,21,236
					c-4,68-2,112,9,155c20,82,19,136-6,273c-29,167-67,244-134,277l-36,17l7,81c15,175,11,287-15,361c-28,81-30,153-6,194
					c18,29,17,29-23,99l-41,70l-208,6c-243,8-359,19-503,52c-63,14-158,26-237,29c-170,9-244,28-417,111c-184,88-570,249-1231,512
					c-300,119-547,223-556,233c-9,11-20,48-23,84c-8,69-22,90-72,106C9212.1,6415.6,9067.1,6382.6,8978.1,6323.6z M7563.1,6150.6
					c570-6,1196-64,1552-144c243-54,538-174,704-286c78-53,93-89,88-213c-4-65-10-92-37-146c-66-135-159-208-316-248
					c-109-28-405-41-1775-76c-443-11-567-12-577-2c-9,9-3,70,22,257c70,505,124,820,146,847
					C7379.1,6149.6,7422.1,6152.6,7563.1,6150.6z M6911.1,6128.6c102,7,108,6,107-12c0-10-78-257-172-549l-173-530h-909h-910l3,30
					c10,121,7,174-14,201c-31,42-65,63-114,72c-27,5-46,13-48,22c-4,26,302,242,513,362c179,102,357,182,510,229
					c170,52,526,110,905,149C6716.1,6112.6,6852.1,6124.6,6911.1,6128.6z"/>
				<path class="st3" d="M9737.1,4164.6c-257-69-490-240-626-462c-167-272-198-622-81-917c202-510,773-774,1289-598
					c356,121,622,430,686,797c21,122,15,321-14,430c-105,393-419,689-811,763C10072.1,4198.6,9839.1,4191.6,9737.1,4164.6z
					 M10204.1,3877.6c238-68,436-272,507-521c29-102,31-276,4-373c-117-429-554-666-967-526c-399,136-609,590-453,980
					c87,216,272,383,495,445C9921.1,3918.6,10069.1,3916.6,10204.1,3877.6z"/>
				<path class="st3" d="M1638.1,4164.6c-192-51-332-133-479-282c-111-112-174-204-224-333c-198-501,9-1056,484-1301
					c398-206,881-131,1198,186c132,131,225,293,274,476c29,111,36,331,13,443c-86,426-406,744-828,825
					C1972.1,4198.6,1737.1,4190.6,1638.1,4164.6z M2114.1,3876.6c186-61,355-205,438-374c65-132,81-201,81-340c0-138-16-208-78-335
					c-73-148-206-276-358-344c-400-180-874,25-1012,439c-55,166-54,329,3,489c82,234,277,413,518,475
					C1829.1,3918.6,1996.1,3914.6,2114.1,3876.6z"/>
			</g>
		</g>
		<g>
			<g>
				<g transform="translate(0.000000,640.000000) scale(0.100000,-0.100000)">
					<path class="st3" d="M8978.1,6323.6l-44-29l-113,9c-568,46-1322,67-1784,51c-719-26-1067-82-1380-223
						c-377-170-1049-531-1694-911l-201-118h-234c-393,0-917-43-1529-126c-384-51-731-121-1125-225c-515-136-751-252-814-400
						c-55-127-73-277-51-427c5-37,14-116,20-177c6-60,18-155,26-211c15-94,15-107-1-180c-35-165-32-236,14-303c35-54,81-84,163-109
						c75-23,267-47,462-57l129-7l-7,48c-24,169-27,219-22,306c22,349,186,639,471,830c234,157,496,223,751,187
						c253-35,499-162,695-358c124-125,192-239,245-416c26-85,28-102,28-290c1-156-3-217-17-279c-9-43-17-82-17-87s1241-9,2986-9
						h2987l-7,47c-3,27-9,113-12,193c-21,471,151,809,531,1047c319,200,723,213,1070,35c384-198,595-561,595-1025v-109l37,6
						c21,3,234,24,473,46c657,60,724,71,849,135c56,28,85,59,100,107c13,38,78,106,149,153c23,15,44,37,47,49c23,111,27,151,21,236
						c-4,68-2,112,9,155c20,82,19,136-6,273c-29,167-67,244-134,277l-36,17l7,81c15,175,11,287-15,361c-28,81-30,153-6,194
						c18,29,17,29-23,99l-41,70l-208,6c-243,8-359,19-503,52c-63,14-158,26-237,29c-170,9-244,28-417,111c-184,88-570,249-1231,512
						c-300,119-547,223-556,233c-9,11-20,48-23,84c-8,69-22,90-72,106C9212.1,6415.6,9067.1,6382.6,8978.1,6323.6z M7563.1,6150.6
						c570-6,1196-64,1552-144c243-54,538-174,704-286c78-53,93-89,88-213c-4-65-10-92-37-146c-66-135-159-208-316-248
						c-109-28-405-41-1775-76c-443-11-567-12-577-2c-9,9-3,70,22,257c70,505,124,820,146,847
						C7379.1,6149.6,7422.1,6152.6,7563.1,6150.6z M6911.1,6128.6c102,7,108,6,107-12c0-10-78-257-172-549l-173-530h-909h-910l3,30
						c10,121,7,174-14,201c-31,42-65,63-114,72c-27,5-46,13-48,22c-4,26,302,242,513,362c179,102,357,182,510,229
						c170,52,526,110,905,149C6716.1,6112.6,6852.1,6124.6,6911.1,6128.6z"/>
					<path class="st3" d="M9737.1,4164.6c-257-69-490-240-626-462c-167-272-198-622-81-917c202-510,773-774,1289-598
						c356,121,622,430,686,797c21,122,15,321-14,430c-105,393-419,689-811,763C10072.1,4198.6,9839.1,4191.6,9737.1,4164.6z
						 M10204.1,3877.6c238-68,436-272,507-521c29-102,31-276,4-373c-117-429-554-666-967-526c-399,136-609,590-453,980
						c87,216,272,383,495,445C9921.1,3918.6,10069.1,3916.6,10204.1,3877.6z"/>
					<path class="st3" d="M1638.1,4164.6c-192-51-332-133-479-282c-111-112-174-204-224-333c-198-501,9-1056,484-1301
						c398-206,881-131,1198,186c132,131,225,293,274,476c29,111,36,331,13,443c-86,426-406,744-828,825
						C1972.1,4198.6,1737.1,4190.6,1638.1,4164.6z M2114.1,3876.6c186-61,355-205,438-374c65-132,81-201,81-340c0-138-16-208-78-335
						c-73-148-206-276-358-344c-400-180-874,25-1012,439c-55,166-54,329,3,489c82,234,277,413,518,475
						C1829.1,3918.6,1996.1,3914.6,2114.1,3876.6z"/>
				</g>
			</g>
			<g>
				<g transform="translate(0.000000,640.000000) scale(0.100000,-0.100000)">
					<path class="st3" d="M8978.1,6323.6l-44-29l-113,9c-568,46-1322,67-1784,51c-719-26-1067-82-1380-223
						c-377-170-1049-531-1694-911l-201-118h-234c-393,0-917-43-1529-126c-384-51-731-121-1125-225c-515-136-751-252-814-400
						c-55-127-73-277-51-427c5-37,14-116,20-177c6-60,18-155,26-211c15-94,15-107-1-180c-35-165-32-236,14-303c35-54,81-84,163-109
						c75-23,267-47,462-57l129-7l-7,48c-24,169-27,219-22,306c22,349,186,639,471,830c234,157,496,223,751,187
						c253-35,499-162,695-358c124-125,192-239,245-416c26-85,28-102,28-290c1-156-3-217-17-279c-9-43-17-82-17-87s1241-9,2986-9
						h2987l-7,47c-3,27-9,113-12,193c-21,471,151,809,531,1047c319,200,723,213,1070,35c384-198,595-561,595-1025v-109l37,6
						c21,3,234,24,473,46c657,60,724,71,849,135c56,28,85,59,100,107c13,38,78,106,149,153c23,15,44,37,47,49c23,111,27,151,21,236
						c-4,68-2,112,9,155c20,82,19,136-6,273c-29,167-67,244-134,277l-36,17l7,81c15,175,11,287-15,361c-28,81-30,153-6,194
						c18,29,17,29-23,99l-41,70l-208,6c-243,8-359,19-503,52c-63,14-158,26-237,29c-170,9-244,28-417,111c-184,88-570,249-1231,512
						c-300,119-547,223-556,233c-9,11-20,48-23,84c-8,69-22,90-72,106C9212.1,6415.6,9067.1,6382.6,8978.1,6323.6z M7563.1,6150.6
						c570-6,1196-64,1552-144c243-54,538-174,704-286c78-53,93-89,88-213c-4-65-10-92-37-146c-66-135-159-208-316-248
						c-109-28-405-41-1775-76c-443-11-567-12-577-2c-9,9-3,70,22,257c70,505,124,820,146,847
						C7379.1,6149.6,7422.1,6152.6,7563.1,6150.6z M6911.1,6128.6c102,7,108,6,107-12c0-10-78-257-172-549l-173-530h-909h-910l3,30
						c10,121,7,174-14,201c-31,42-65,63-114,72c-27,5-46,13-48,22c-4,26,302,242,513,362c179,102,357,182,510,229
						c170,52,526,110,905,149C6716.1,6112.6,6852.1,6124.6,6911.1,6128.6z"/>
					<path class="st3" d="M9737.1,4164.6c-257-69-490-240-626-462c-167-272-198-622-81-917c202-510,773-774,1289-598
						c356,121,622,430,686,797c21,122,15,321-14,430c-105,393-419,689-811,763C10072.1,4198.6,9839.1,4191.6,9737.1,4164.6z
						 M10204.1,3877.6c238-68,436-272,507-521c29-102,31-276,4-373c-117-429-554-666-967-526c-399,136-609,590-453,980
						c87,216,272,383,495,445C9921.1,3918.6,10069.1,3916.6,10204.1,3877.6z"/>
					<path class="st3" d="M1638.1,4164.6c-192-51-332-133-479-282c-111-112-174-204-224-333c-198-501,9-1056,484-1301
						c398-206,881-131,1198,186c132,131,225,293,274,476c29,111,36,331,13,443c-86,426-406,744-828,825
						C1972.1,4198.6,1737.1,4190.6,1638.1,4164.6z M2114.1,3876.6c186-61,355-205,438-374c65-132,81-201,81-340c0-138-16-208-78-335
						c-73-148-206-276-358-344c-400-180-874,25-1012,439c-55,166-54,329,3,489c82,234,277,413,518,475
						C1829.1,3918.6,1996.1,3914.6,2114.1,3876.6z"/>
				</g>
			</g>
			<g>
				<g transform="translate(0.000000,640.000000) scale(0.100000,-0.100000)">
					<path class="st3" d="M8978.1,6323.6l-44-29l-113,9c-568,46-1322,67-1784,51c-719-26-1067-82-1380-223
						c-377-170-1049-531-1694-911l-201-118h-234c-393,0-917-43-1529-126c-384-51-731-121-1125-225c-515-136-751-252-814-400
						c-55-127-73-277-51-427c5-37,14-116,20-177c6-60,18-155,26-211c15-94,15-107-1-180c-35-165-32-236,14-303c35-54,81-84,163-109
						c75-23,267-47,462-57l129-7l-7,48c-24,169-27,219-22,306c22,349,186,639,471,830c234,157,496,223,751,187
						c253-35,499-162,695-358c124-125,192-239,245-416c26-85,28-102,28-290c1-156-3-217-17-279c-9-43-17-82-17-87s1241-9,2986-9
						h2987l-7,47c-3,27-9,113-12,193c-21,471,151,809,531,1047c319,200,723,213,1070,35c384-198,595-561,595-1025v-109l37,6
						c21,3,234,24,473,46c657,60,724,71,849,135c56,28,85,59,100,107c13,38,78,106,149,153c23,15,44,37,47,49c23,111,27,151,21,236
						c-4,68-2,112,9,155c20,82,19,136-6,273c-29,167-67,244-134,277l-36,17l7,81c15,175,11,287-15,361c-28,81-30,153-6,194
						c18,29,17,29-23,99l-41,70l-208,6c-243,8-359,19-503,52c-63,14-158,26-237,29c-170,9-244,28-417,111c-184,88-570,249-1231,512
						c-300,119-547,223-556,233c-9,11-20,48-23,84c-8,69-22,90-72,106C9212.1,6415.6,9067.1,6382.6,8978.1,6323.6z M7563.1,6150.6
						c570-6,1196-64,1552-144c243-54,538-174,704-286c78-53,93-89,88-213c-4-65-10-92-37-146c-66-135-159-208-316-248
						c-109-28-405-41-1775-76c-443-11-567-12-577-2c-9,9-3,70,22,257c70,505,124,820,146,847
						C7379.1,6149.6,7422.1,6152.6,7563.1,6150.6z M6911.1,6128.6c102,7,108,6,107-12c0-10-78-257-172-549l-173-530h-909h-910l3,30
						c10,121,7,174-14,201c-31,42-65,63-114,72c-27,5-46,13-48,22c-4,26,302,242,513,362c179,102,357,182,510,229
						c170,52,526,110,905,149C6716.1,6112.6,6852.1,6124.6,6911.1,6128.6z"/>
					<path class="st3" d="M9737.1,4164.6c-257-69-490-240-626-462c-167-272-198-622-81-917c202-510,773-774,1289-598
						c356,121,622,430,686,797c21,122,15,321-14,430c-105,393-419,689-811,763C10072.1,4198.6,9839.1,4191.6,9737.1,4164.6z
						 M10204.1,3877.6c238-68,436-272,507-521c29-102,31-276,4-373c-117-429-554-666-967-526c-399,136-609,590-453,980
						c87,216,272,383,495,445C9921.1,3918.6,10069.1,3916.6,10204.1,3877.6z"/>
					<path class="st3" d="M1638.1,4164.6c-192-51-332-133-479-282c-111-112-174-204-224-333c-198-501,9-1056,484-1301
						c398-206,881-131,1198,186c132,131,225,293,274,476c29,111,36,331,13,443c-86,426-406,744-828,825
						C1972.1,4198.6,1737.1,4190.6,1638.1,4164.6z M2114.1,3876.6c186-61,355-205,438-374c65-132,81-201,81-340c0-138-16-208-78-335
						c-73-148-206-276-358-344c-400-180-874,25-1012,439c-55,166-54,329,3,489c82,234,277,413,518,475
						C1829.1,3918.6,1996.1,3914.6,2114.1,3876.6z"/>
				</g>
			</g>
		</g>
	</g>
</g>
<g id="Layer_2">
	<rect x="1317.4" y="63.1" class="st4" width="418.1" height="70"/>
	<rect x="1317.4" y="294.3" class="st5" width="418.1" height="70"/>
	<rect x="1317.4" y="182.2" class="st6" width="418.1" height="70"/>
</g>
</svg>
